<?xml version="1.0" encoding="utf-8"?>
<!-- Generator: Adobe Illustrator 27.5.0, SVG Export Plug-In . SVG Version: 6.00 Build 0)  -->
<svg version="1.1" xmlns="http://www.w3.org/2000/svg" xmlns:xlink="http://www.w3.org/1999/xlink" x="0px" y="0px"
	 viewBox="0 0 750 500" style="enable-background:new 0 0 750 500;" xml:space="preserve">
<g id="BACKGROUND">
	<rect style="fill:#F6E6D2;" width="750" height="500"/>
</g>
<g id="OBJECTS">
	<g>
		<path style="fill:#773B00;" d="M585.756,210.303c0.496-0.481,0.631-1.136,0.874-1.708c1.243-2.922,2.65-5.752,4.503-8.342
			c0.384-0.536,0.771-1.073,1.197-1.576c4.095-4.839,10.928-3.686,13.297,2.244c0.237,0.594,0.426,1.208,0.644,1.83
			c0.756-0.313,0.978-0.986,1.352-1.504c1.318-1.825,2.842-3.46,4.392-5.088c4.786-5.029,11.074-0.66,11.94,3.703
			c0.404,2.034,0.445,4.056,0.191,6.101c-0.521,4.207-1.729,8.254-2.83,12.328c-1.515,5.601-3.14,11.18-3.918,16.95
			c-0.46,3.412-0.687,6.83,0.099,10.234c0.148,0.64,0.219,1.307,0.72,1.893c1.271-0.544,1.972-1.671,2.684-2.76
			c1.527-2.338,2.48-4.951,3.441-7.546c1.214-3.277,2.316-6.595,3.475-9.892c0.313-0.889,0.339-1.759,0.227-2.711
			c-0.973-8.299,0.811-15.991,5.248-23.068c0.882-1.406,2.026-2.587,3.191-3.764c5.137-5.189,14.367-3.199,15.76,5.001
			c0.482,2.838,0.443,5.642-0.488,8.401c-1.67,4.953-6.455,8.163-11.028,7.589c-0.705-0.089-1.269-0.142-1.377,0.858
			c-0.459,4.257-0.346,8.479,1.334,12.461c1.34,3.178,1.547,4.06,5.262,1.384c1.956-1.409,3.347-3.354,4.516-5.446
			c2.371-4.242,3.806-8.828,4.938-13.524c2.518-10.442,3.764-21.027,3.544-31.774c-0.041-1.979-0.055-1.966-2.046-2.348
			c-5.631-1.08-11.307-1.939-16.831-3.532c-2.8-0.807-5.483-1.89-8.022-3.319c-2.024-1.138-3.888-2.486-5.465-4.21
			c-4.416-4.826-5.24-10.836-2.281-16.672c3.151-6.215,9.577-9.997,16.291-9.499c3.989,0.296,7.301,2.137,10.168,4.826
			c3.647,3.421,5.954,7.696,7.673,12.321c1.475,3.967,2.503,8.057,3.284,12.213c0.388,2.064,0.4,2.036,2.384,2.365
			c5.014,0.829,9.984,1.845,14.788,3.55c2.432,0.863,4.761,1.937,6.907,3.389c2.582,1.747,4.436,4.105,5.84,6.854
			c1.533,3.003,1.352,6.112,0.619,9.27c-0.749,3.225-1.944,6.301-3.115,9.384c-1.898,4.999-3.753,10.014-4.764,15.283
			c-0.662,3.449-0.984,6.927-0.265,10.421c0.281,1.365,0.673,2.693,1.458,3.862c0.764,1.137,1.049,1.22,2.265,0.536
			c2.886-1.624,5.183-3.901,6.795-6.763c1.765-3.132,3.04-6.453,2.528-10.178c-0.131-0.953,0.274-1.474,1.169-1.759
			c2.134-0.679,3.924,0.372,4.402,2.689c0.337,1.633,0.199,3.286,0.027,4.93c-0.584,5.58-3.01,10.206-7.292,13.817
			c-3.845,3.242-8.267,4.621-13.26,3.603c-3.758-0.766-6.622-2.846-8.414-6.298c-1.965-3.785-2.62-7.875-2.634-12.068
			c-0.023-7.393,1.333-14.566,3.719-21.551c1.151-3.37,2.344-6.726,3.49-10.097c0.533-1.565,0.904-3.174,0.978-4.834
			c0.103-2.317-0.131-2.712-2.269-3.566c-3.38-1.35-6.923-2.144-10.452-2.973c-1.212-0.285-2.435-0.517-3.661-0.775
			c-0.366,1.092-0.171,2.086-0.151,3.063c0.259,12.598-1.009,25.031-4.033,37.27c-0.873,3.531-2.099,6.941-3.895,10.126
			c-0.946,1.678-2.068,3.217-3.457,4.555c-4.948,4.765-11.034,4.264-15.622,1.34c-1.688-1.076-3.054-2.508-4.217-4.134
			c-0.34-0.476-0.673-0.957-1.057-1.503c-0.705,0.654-0.758,1.48-0.986,2.194c-1.182,3.707-2.391,7.403-3.867,11.007
			c-0.503,1.228-1.093,2.404-1.896,3.461c-2.441,3.216-6.421,3.69-9.579,1.146c-1.315-1.06-2.202-2.44-2.896-3.956
			c-1.504-3.287-2.168-6.776-2.394-10.353c-0.447-7.065,0.708-13.938,2.556-20.725c1.196-4.39,2.583-8.728,3.542-13.181
			c0.092-0.426,0.364-0.854-0.004-1.371c-0.833,0.453-1.389,1.199-1.974,1.888c-3.898,4.589-6.212,9.916-7.248,15.816
			c-0.491,2.792-1.038,5.574-1.259,8.411c-0.14,1.788-1.133,2.516-2.947,2.383c-2.697-0.198-4.623-2.029-4.927-4.811
			c-0.265-2.428-0.35-4.866-0.205-7.313c0.233-3.952,0.413-7.907,0.591-11.862c0.047-1.049,0.007-2.102,0.007-3.114
			c-0.693-0.34-0.916,0.202-1.198,0.496c-2.223,2.314-3.796,5.054-5.115,7.95c-2.01,4.415-3.155,9.081-4.001,13.836
			c-0.254,1.428-0.499,2.864-0.885,4.259c-0.586,2.121-2.102,2.918-4.256,2.383c-1.988-0.494-3.406-1.678-4.269-3.525
			c-0.249-0.532-0.451-1.087-0.677-1.637c-0.795,0.234-0.712,0.963-0.879,1.469c-1.095,3.322-2.287,6.606-3.694,9.808
			c-0.476,1.084-0.98,2.173-1.623,3.162c-2.105,3.24-5.762,3.667-8.665,1.065c-1.105-0.99-1.833-2.239-2.395-3.593
			c-1.308-3.146-1.914-6.437-2.014-9.831c-0.211-7.134,1.096-14.049,3.037-20.869c0.885-3.107,1.818-6.2,2.688-9.311
			c0.262-0.936,0.387-1.911,0.625-3.126c-1.226,0.476-1.762,1.307-2.333,2.053c-2.749,3.588-4.248,7.729-5.134,12.099
			c-0.707,3.488-1.23,7.013-1.889,10.512c-0.464,2.464-1.113,3.117-2.85,3.106c-2.222-0.014-4.099-1.476-4.353-3.56
			c-0.335-2.754-0.381-5.523-0.259-8.301c0.164-3.757,0.229-7.519,0.32-11.279c0.009-0.365,0.146-0.79-0.344-1.182
			c-0.65,0.407-1.034,1.089-1.468,1.707c-3.056,4.349-4.587,9.318-5.797,14.409c-0.717,3.019-1.1,6.099-1.589,9.16
			c-0.177,1.105-0.391,2.211-0.694,3.287c-0.584,2.073-1.988,2.976-4.144,2.797c-2.022-0.168-3.664-1.012-4.877-2.655
			c-0.233-0.315-0.471-0.627-0.708-0.943c-0.763,0.204-0.729,0.913-0.943,1.402c-1.354,3.096-3.026,5.988-5.022,8.725
			c-3.701,5.072-11.131,4.334-13.995-1.446c-2.012-4.061-2.584-8.43-2.602-12.883c-0.014-3.429,0.026-6.864,0.409-10.281
			c0.058-0.52,0.054-1.047,0.096-1.955c-0.797,1.599-0.893,2.995-1.167,4.331c-1.338,6.524-2.514,13.085-4.378,19.49
			c-0.905,3.109-1.997,6.147-3.556,8.999c-0.667,1.219-1.432,2.367-2.315,3.443c-3.387,4.126-8.475,2.987-11.025,0.468
			c-1.594-1.575-2.579-3.493-3.225-5.6c-1.032-3.366-1.488-6.831-1.614-10.335c-0.365-10.167,0.03-20.321,0.591-30.47
			c0.296-5.355,0.145-10.684-0.899-15.963c-0.431-2.177-1.085-4.199-3.056-5.558c-0.634-0.437-1.193-1.162-0.827-2.043
			c0.381-0.917,1.263-1.093,2.153-1.098c0.87-0.005,1.686,0.275,2.486,0.594c2.575,1.025,4.635,2.737,6.455,4.787
			c4.612,5.194,6.758,11.356,7.361,18.193c0.604,6.848-0.427,13.559-1.39,20.288c-0.859,6.007-1.925,11.987-2.436,18.04
			c-0.177,2.099-0.332,4.205,0.264,6.408c1.06-0.418,1.581-1.278,2.151-2.033c2.044-2.708,3.507-5.738,4.654-8.912
			c2.631-7.279,4.206-14.84,5.865-22.375c1.489-6.763,2.923-13.538,4.397-20.305c0.168-0.771,0.387-1.538,0.666-2.276
			c0.678-1.788,1.829-2.424,3.725-2.06c2.233,0.43,4.041,1.538,5.349,3.435c1.942,2.816,2.631,6.013,2.841,9.344
			c0.288,4.587-0.497,9.078-1.352,13.553c-0.829,4.343-1.59,8.695-2.046,13.094c-0.265,2.564-0.336,5.136,0.138,7.691
			c0.084,0.453,0.174,0.91,0.322,1.344c0.444,1.307,0.694,1.369,1.682,0.317c2.469-2.63,4.231-5.716,5.678-8.994
			c0.399-0.904,0.759-1.827,1.112-2.751c0.806-2.111,1.201-4.197,0.871-6.546c-0.872-6.207,0.431-12.212,2.327-18.094
			c0.646-2.003,1.533-2.596,3.262-2.564c2.266,0.041,4.025,1.073,4.636,2.746c0.343,0.94,0.409,1.929,0.467,2.92
			c0.178,3.032-0.015,6.063-0.055,9.349c0.814-0.669,0.854-1.477,1.081-2.145c1.53-4.512,3.254-8.929,6.048-12.842
			c0.613-0.858,1.237-1.715,1.923-2.514c2.506-2.914,5.917-3.099,8.844-0.543c1.396,1.219,2.2,2.757,2.493,4.722
			c0.733-0.285,0.852-0.829,1.089-1.238c0.93-1.605,2.005-3.082,3.327-4.406c4.243-4.247,10.307-1.005,11.56,2.976
			c0.836,2.655,0.703,5.347,0.245,8.032c-0.7,4.107-2.05,8.048-3.196,12.04c-1.548,5.387-3.134,10.765-3.929,16.335
			c-0.415,2.91-0.306,5.63,0.414,7.917c1.06-0.461,1.523-1.432,2.039-2.308c2.015-3.427,3.483-7.106,4.81-10.837
			c1.95-5.48,3.331-11.114,4.402-16.827c0.341-1.818,0.783-3.609,1.443-5.34c0.976-2.557,1.834-3.177,3.82-2.783
			c2.683,0.533,3.931,1.932,3.821,4.379c-0.068,1.515-0.235,3.026-0.335,4.54C585.529,209.474,585.376,209.875,585.756,210.303z
			 M626.724,159.989c0.119,4.269,2.363,7.729,6.651,9.848c2.325,1.149,4.843,1.68,7.385,2.097c5.402,0.886,10.877,1.133,16.3,1.833
			c1.293,0.167,1.372,0.076,1.23-1.252c-0.559-5.202-1.695-10.273-3.697-15.117c-1.267-3.067-2.959-5.89-5.349-8.237
			c-2.401-2.358-5.238-3.769-8.66-3.715C633.58,145.555,626.783,152.45,626.724,159.989z M645.131,202.342
			c-2.205,2.205-5.116,10.264-4.802,13.054C644.734,214.114,647.089,207.871,645.131,202.342z"/>
		<path style="fill:#773B00;" d="M599.61,362.539c1.197-1.141,1.841-2.37,2.406-3.626c2.531-5.621,4.052-11.569,5.538-17.522
			c0.171-0.685,0.075-1.443,0.06-2.166c-0.116-5.484,0.828-10.769,2.943-15.837c0.511-1.223,1.126-2.392,1.976-3.414
			c1.29-1.552,2.934-1.813,5.217-0.869c1.879,0.776,2.543,1.764,2.259,3.858c-0.382,2.809-0.96,5.591-1.374,8.396
			c-0.598,4.048-1.12,8.108-1.051,12.214c0.041,2.447,0.227,4.886,1.137,7.194c0.883,2.241,1.536,2.508,3.767,1.58
			c1.844-0.767,3.475-1.889,5.016-3.142c4.328-3.522,7.949-7.706,11.359-12.094c0.571-0.734,0.639-1.31,0.1-2.107
			c-1.37-2.026-2.496-4.19-3.362-6.486c-1.309-3.47-1.364-6.962-0.231-10.476c1.126-3.492,2.804-6.686,5.242-9.451
			c1.234-1.4,2.672-2.513,4.387-3.31c3.83-1.781,9.541,0.661,9.205,6.311c-0.163,2.749-0.988,5.308-1.967,7.834
			c-1.506,3.885-3.333,7.623-5.578,11.129c-0.784,1.225-0.68,2.074,0.16,3.145c1.913,2.44,3.766,4.928,5.585,7.439
			c0.506,0.698,1.005,0.898,1.832,0.693c1.727-0.429,3.466-0.834,5.22-1.124c1.056-0.175,1.427-0.629,1.404-1.694
			c-0.067-3.041,0.22-6.064,0.696-9.067c0.591-3.732,1.559-7.359,3.21-10.772c1.728-3.571,4.107-6.602,7.506-8.746
			c1.475-0.93,3.039-1.56,4.833-1.518c3.723,0.086,6.527,2.029,7.449,5.641c1.62,6.343,1.144,12.617-1.659,18.543
			c-1.881,3.976-5.119,6.309-9.706,6.342c-0.663,0.005-1.193,0.049-1.163,0.908c0.144,4.158,0.229,8.326,1.803,12.269
			c1.086,2.72,1.638,2.846,3.816,0.866c1.875-1.704,3.346-3.722,4.502-5.976c1.995-3.889,3.503-7.965,4.709-12.159
			c0.146-0.507,0.269-1.021,0.427-1.524c0.562-1.786,1.385-2.214,3.1-1.627c1.184,0.405,1.421,0.744,1.336,2.046
			c-0.104,1.583-0.38,3.14-0.736,4.686c-1.009,4.378-2.364,8.65-3.923,12.86c-0.506,1.366-1.142,2.667-1.975,3.868
			c-3.928,5.666-11.024,6.968-16.734,3.073c-2.963-2.021-4.784-4.867-5.903-8.203c-0.673-2.007-1.067-4.08-1.296-6.187
			c-0.161-1.489-0.237-1.559-1.735-1.2c-1.528,0.366-3.12,0.509-4.564,1.183c-0.022,0.834,0.513,1.39,0.839,2.019
			c1.624,3.141,2.71,6.442,3.026,9.974c0.904,10.107-6.946,17.231-14.508,18.749c-1.963,0.394-3.911,0.441-5.892,0.048
			c-4.348-0.862-6.887-3.99-6.723-8.438c0.084-2.27,0.663-4.441,1.571-6.507c2.461-5.601,6.004-10.376,10.956-14.034
			c1.459-1.078,1.694-0.863,0.48-2.765c-0.987-1.547-1.93-3.129-3.126-4.516c-0.705,0.087-0.889,0.651-1.192,1.039
			c-3.053,3.914-6.442,7.511-10.153,10.806c-1.384,1.229-2.823,2.387-4.413,3.34c-5.309,3.185-10.763,2.15-14.558-2.755
			c-0.468-0.605-0.911-1.229-1.555-2.1c-0.278,1.04-0.492,1.773-0.668,2.514c-0.625,2.633-1.309,5.247-2.31,7.769
			c-0.611,1.539-1.329,3.02-2.383,4.313c-2.921,3.586-7.691,4.067-11.251,1.104c-1.796-1.495-3.118-3.39-4.341-5.361
			c-1.106-1.784-1.934-3.717-2.879-5.645c-5.767,3.826-10.792,2.856-15.398-2.239c-0.254,0.911-0.468,1.573-0.62,2.248
			c-0.321,1.42-0.711,2.818-1.333,4.135c-2.109,4.473-7.333,5.748-11.311,2.774c-1.239-0.926-2.137-2.141-2.924-3.451
			c-1.804-3.004-2.587-6.327-3.081-9.745c-0.061-0.426,0.078-0.91-0.294-1.279c-0.616,0.177-0.463,0.745-0.577,1.146
			c-0.489,1.715-0.988,3.423-1.872,4.989c-2.113,3.742-6.049,4.873-9.839,2.84c-0.518-0.278-0.937-0.742-1.552-0.838
			c-0.523,0.35-0.445,0.923-0.531,1.427c-0.569,3.315-1.053,6.648-1.971,9.892c-0.559,1.975-1.265,3.893-2.429,5.605
			c-3.086,4.542-8.758,5.048-12.585,1.121c-1.587-1.628-2.708-3.552-3.606-5.634c-2.693-6.243-3.581-12.807-3.458-19.534
			c0.06-3.296,0.346-6.586,0.502-9.881c0.105-2.211,0.128-4.42-0.766-6.591c-0.642,0.589-0.552,1.292-0.666,1.923
			c-1.166,6.438-2.727,12.77-5.087,18.886c-1.048,2.714-2.272,5.341-3.857,7.789c-1.046,1.615-2.238,3.108-3.724,4.341
			c-3.782,3.138-8.573,3.078-12.29-0.139c-1.263-1.093-2.219-2.428-3.079-3.847c-0.296-0.488-0.384-1.144-1.024-1.416
			c-0.538,0.62-0.676,1.416-0.985,2.127c-0.874,2.005-1.853,3.946-3.309,5.6c-2.861,3.25-6.788,3.948-10.531,1.763
			c-3.979-2.323-6.205-5.908-6.694-10.427c-0.634-5.86,1.049-11.137,4.841-15.629c3.875-4.59,9.57-5.733,15.039-3.17
			c0.717,0.336,1.143,0.259,1.753-0.176c1.051-0.749,2.31-0.964,3.581-0.92c2.193,0.076,3.428,1.09,3.896,3.23
			c0.453,2.072,0.495,4.19,0.521,6.303c0.042,3.368,0.161,6.729,0.769,10.053c0.276,1.507,0.72,2.953,1.603,4.223
			c0.812,1.168,1.11,1.216,2.208,0.354c1.471-1.155,2.608-2.61,3.601-4.18c1.917-3.029,3.306-6.308,4.475-9.68
			c2.298-6.624,3.964-13.401,4.981-20.344c0.172-1.177-0.072-1.973-0.946-2.777c-1.973-1.815-3.458-3.969-4.14-6.619
			c-0.268-1.04-0.346-2.084-0.249-3.14c0.192-2.084,1.194-3.442,2.825-3.888c1.892-0.519,3.937,0.187,5.087,1.793
			c0.863,1.205,1.306,2.587,1.544,4.032c0.235,1.432,0.498,2.877,0.347,4.33c-0.127,1.228,0.366,1.97,1.431,2.508
			c0.999,0.505,1.934,1.135,2.906,1.693c4.311,2.474,6.45,6.311,6.836,11.154c0.336,4.219-0.06,8.44-0.205,12.659
			c-0.192,5.613-0.229,11.222,1.069,16.737c0.391,1.661,0.902,3.299,2.264,4.681c1.026-0.763,1.458-1.871,1.929-2.919
			c1.362-3.025,2.175-6.222,2.82-9.462c0.477-2.393,0.869-4.804,1.376-7.191c0.268-1.264,0.198-2.436-0.169-3.685
			c-1.655-5.636-1.372-11.209,0.756-16.686c0.552-1.421,1.259-2.76,2.129-4.012c3.89-5.592,10.884-6.694,16.275-2.516
			c0.588,0.455,1.109,0.615,1.798,0.506c0.785-0.125,1.576-0.137,2.367-0.028c2.327,0.322,3.82,1.641,4.442,3.92
			c0.334,1.223,0.412,2.468,0.379,3.728c-0.119,4.486-0.646,8.951-0.64,13.443c0.003,2.512,0.111,5.015,0.622,7.483
			c0.253,1.223,0.523,2.448,1.293,3.566c0.811-0.26,0.994-1.016,1.31-1.607c1.379-2.576,2.151-5.38,3.033-8.146
			c0.626-1.961,0.976-3.906,0.91-6.005c-0.121-3.887,0.842-7.579,2.696-11.025c1.914-3.557,4.79-5.519,8.907-5.549
			c1.455-0.011,1.493-0.065,1.495-1.344c0.007-3.763,0.079-7.524,0.497-11.267c0.115-1.031-0.16-1.535-1.266-1.755
			c-4.908-0.977-9.089-3.446-12.945-6.53c-2.584-2.066-4.899-4.416-7.157-6.826c-2.029-2.167-4.021-4.372-6.205-6.389
			c-1.214-1.122-2.483-2.172-3.873-3.071c-4.058-2.627-8.393-3.055-12.867-1.361c-5.407,2.049-9.207,5.832-11.266,11.248
			c-0.569,1.498-1.26,3.12,0.174,4.636c0.442,0.468,0.063,0.856-0.415,1.058c-1.242,0.526-2.819-0.073-3.571-1.363
			c-0.588-1.009-0.688-2.115-0.571-3.257c0.326-3.195,1.715-5.939,3.652-8.422c6.42-8.23,17.904-10.62,27.089-5.664
			c2.637,1.423,4.919,3.312,7.056,5.389c2.179,2.118,4.169,4.411,6.188,6.678c2.505,2.813,5.103,5.532,8.172,7.749
			c2.043,1.476,4.209,2.726,6.657,3.413c1.369,0.384,1.414,0.363,1.531-1.107c0.48-6.053,1.13-12.087,2.027-18.093
			c1.122-7.509,2.471-14.973,4.764-22.229c1.194-3.78,2.589-7.481,4.66-10.891c0.618-1.018,1.278-2.002,2.064-2.898
			c4.19-4.772,9.41-3.923,13.219-0.879c2.064,1.649,3.353,3.867,4.225,6.344c1.642,4.665,1.745,9.454,1.032,14.27
			c-1.239,8.367-3.977,16.255-7.909,23.73c-1.573,2.99-3.483,5.756-5.822,8.21c-1.235,1.296-2.547,2.55-4.131,3.359
			c-1.508,0.77-1.922,1.819-1.955,3.443c-0.233,11.545-0.711,23.091,0.564,34.609c0.516,4.66,1.127,9.308,3.056,13.655
			C597.886,360.206,598.451,361.465,599.61,362.539z M594.548,303.717c0.364-0.294,0.685-0.52,0.967-0.788
			c2.369-2.245,4.214-4.89,5.776-7.732c3.974-7.228,6.611-14.931,7.931-23.066c0.77-4.745,0.643-9.459-1.06-14.038
			c-0.557-1.498-1.283-2.895-2.398-4.054c-0.978-1.018-1.461-1.03-2.495-0.069c-0.883,0.821-1.456,1.864-1.969,2.939
			c-1.288,2.697-2.034,5.572-2.637,8.474c-2.54,12.226-3.602,24.634-4.453,37.065C594.186,302.819,594.056,303.231,594.548,303.717z
			 M647.06,347.941c-0.374,0.12-0.52,0.128-0.615,0.203c-4.978,3.917-8.385,8.904-10.084,15.011
			c-0.441,1.586-0.634,3.229-0.307,4.898c0.73,3.728,2.826,4.897,6.309,3.342c3.672-1.639,5.935-4.53,6.917-8.401
			C650.619,357.714,649.212,352.834,647.06,347.941z M480.65,346.893c0.032-0.487,0.059-1.145,0.119-1.799
			c0.192-2.093-0.369-2.792-2.418-3.009c-0.844-0.09-1.543,0.226-2.18,0.734c-0.886,0.707-1.61,1.566-2.163,2.542
			c-2.453,4.323-3.725,8.969-3.642,13.953c0.024,1.453,0.303,2.882,0.847,4.237c0.993,2.476,1.76,2.628,3.571,0.731
			c1.009-1.057,1.797-2.276,2.408-3.592C479.201,356.368,480.826,351.942,480.65,346.893z M540.373,343.798
			c-0.034,2.938,0.358,5.391,1.277,7.221c0.315,0.626,0.523,1.552,1.332,1.559c0.651,0.006,1.002-0.789,1.359-1.335
			c1.023-1.565,1.601-3.313,2.056-5.111c1.393-5.503,1.787-11.196,3.198-16.695c0.085-0.33,0.095-0.643-0.063-0.957
			c-0.961-1.907-3.379-2.194-4.658-0.533c-0.891,1.156-1.556,2.448-2.1,3.797C541.257,335.509,540.352,339.404,540.373,343.798z
			 M678.713,314.308c-2.023,1.95-3.105,4.184-3.981,6.521c-1.796,4.796-2.453,9.804-2.642,14.889
			c-0.056,1.508,0.313,1.746,1.722,1.098c2.068-0.952,3.461-2.591,4.422-4.599c1.92-4.011,2.643-8.24,2.117-12.663
			C680.142,317.791,679.799,316.056,678.713,314.308z M580.722,329.393c-1.266,0.586-1.659,1.523-2.079,2.377
			c-2.308,4.693-3.067,9.63-2.14,14.79c0.294,1.636,0.944,3.144,1.946,4.493c0.566,0.762,1.119,0.768,1.802,0.153
			c0.897-0.808,1.505-1.815,2.141-2.818c0.748-1.18,0.973-2.336,0.575-3.739c-0.5-1.767-0.747-3.607-1.086-5.418
			C581.289,336.065,581.156,332.839,580.722,329.393z M644.233,329.046c1.651-2.343,2.722-4.719,3.795-7.094
			c1.362-3.015,2.356-6.133,2.692-9.439c0.128-1.256,0.066-2.497-0.354-3.7c-0.249-0.713-0.746-0.894-1.393-0.545
			c-1.003,0.541-1.78,1.349-2.445,2.257c-2.185,2.979-3.496,6.33-3.951,9.975C642.213,323.411,642.712,326.212,644.233,329.046z"/>
		<path style="fill:#773B00;" d="M453.771,99.566c11.415,0.059,20.438,3.498,27.321,11.696c2.745,3.27,4.839,6.895,5.619,11.187
			c0.501,2.756,0.182,5.382-0.893,7.939c-0.503,1.196-1.199,1.469-2.308,0.869c-1.208-0.654-1.808-1.615-1.668-3.073
			c0.35-3.651-0.579-7.041-2.142-10.326c-1.638-3.446-4.219-5.838-7.644-7.408c-4.892-2.241-10.042-2.658-15.298-2.064
			c-9.186,1.039-17.658,4.298-25.713,8.67c-11.01,5.975-20.71,13.614-28.742,23.28c-2.45,2.949-4.707,6.037-6.204,9.608
			c-0.668,1.594-1.11,3.237-1.146,4.983c-0.022,1.029,0.363,1.752,1.268,2.264c1.848,1.045,3.808,1.814,5.817,2.47
			c6.022,1.964,12.189,3.407,18.282,5.119c7.565,2.126,15.009,4.579,22.071,8.071c9.309,4.603,17.28,10.854,23.652,19.11
			c5.671,7.347,8.941,15.689,10.072,24.82c0.797,6.433-0.684,12.607-3.261,18.501c-4.899,11.21-13.21,19.086-24.103,24.366
			c-8.254,4-16.972,5.721-26.125,4.892c-7.16-0.649-13.767-3.005-19.746-7.002c-10.938-7.313-17.856-17.43-20.601-30.285
			c-1.493-6.992-0.954-13.917,1.695-20.613c1.103-2.788,2.645-5.318,4.767-7.454c3.861-3.884,8.365-5.053,13.58-3.139
			c2.648,0.972,4.978,2.404,6.835,4.561c1.93,2.242,2.854,4.873,3.005,7.791c0.068,1.306-0.505,1.686-1.703,1.19
			c-0.966-0.399-1.668-1.036-1.848-2.138c-0.117-0.715-0.269-1.426-0.446-2.128c-0.328-1.298-0.929-2.465-1.786-3.495
			c-2.433-2.927-6.486-3.706-9.817-1.889c-2.084,1.137-3.634,2.833-4.903,4.794c-3.237,4.997-4.412,10.576-4.235,16.419
			c0.377,12.459,5.524,22.659,15.085,30.591c6.123,5.081,13.326,7.141,21.189,6.722c20.24-1.079,37.616-15.885,42.038-35.691
			c1.047-4.69,1.197-9.439,0.535-14.171c-0.595-4.252-2.519-8.035-4.857-11.59c-4.943-7.514-11.926-12.575-19.903-16.417
			c-7.468-3.597-15.399-5.821-23.387-7.882c-4.913-1.268-9.869-2.381-14.704-3.94c-2.578-0.831-5.093-1.808-7.456-3.152
			c-2.138-1.216-4.085-2.674-5.738-4.501c-5.074-5.606-6.166-11.938-3.269-18.895c2.03-4.876,5.217-9.013,8.783-12.846
			c9.196-9.883,20.038-17.507,32.252-23.196c6.43-2.995,13.127-5.169,20.18-6.114C450.328,99.782,452.507,99.677,453.771,99.566z"/>
		<path style="fill:#773B00;" d="M483.802,260.626c14.445,0.056,25.509,12.169,24.355,26.605
			c-0.733,9.164-4.167,17.306-9.639,24.534c-11.695,15.445-27.113,24.969-46.259,28.288c-2.399,0.416-4.845,0.576-7.294,0.568
			c-1.413-0.005-1.455,0.05-1.229,1.451c0.936,5.807,2.399,11.488,4.197,17.083c2.321,7.223,5.093,14.285,7.612,21.437
			c0.964,2.737,1.918,5.483,2.202,8.4c0.528,5.42-3.79,8.699-8.939,6.805c-1.453-0.534-2.684-1.397-3.815-2.425
			c-2.313-2.104-4.171-4.579-5.845-7.201c-4.916-7.7-8.004-16.168-10.394-24.92c-2.107-7.717-3.432-15.582-4.215-23.535
			c-0.118-1.203-0.611-1.829-1.617-2.418c-7.216-4.225-12.179-10.204-14.088-18.485c-1.339-5.809-0.443-11.402,1.705-16.859
			c2.115-5.375,5.593-9.839,9.476-14.017c3.469-3.733,7.174-7.202,11.625-9.764c0.753-0.434,1.141-1.033,1.427-1.797
			c0.788-2.106,1.708-4.148,3.093-5.945c1.077-1.397,2.358-2.288,4.251-1.805c1.52,0.388,1.941,1.007,1.582,2.566
			c-3.766,16.388-5.713,32.997-6.044,49.801c-0.109,5.545,0.108,11.082,0.601,16.606c0.047,0.522-0.158,1.437,0.68,1.366
			c0.977-0.082,0.401-0.951,0.346-1.432c-1.459-12.671-0.716-25.16,3.059-37.398c2.037-6.602,4.844-12.848,9.066-18.357
			c7.282-9.503,16.743-15.736,28.409-18.548C479.972,260.781,481.878,260.582,483.802,260.626z M442.375,327.705
			c0.072,1.476,0.063,4.06,0.354,6.609c0.389,3.415-0.471,3.324,3.58,2.956c7.745-0.703,14.925-3.24,21.657-7.037
			c12.159-6.857,21.702-16.251,27.568-29.07c2.776-6.067,4.342-12.44,4.095-19.172c-0.127-3.472-0.801-6.808-2.658-9.815
			c-2.171-3.516-5.323-5.38-9.449-5.615c-2.798-0.159-5.54,0.198-8.204,1.016c-13.824,4.245-23.812,12.948-29.989,26.004
			C444.386,304.031,442.495,315.137,442.375,327.705z M424.08,332.051c-0.865-17.447,1.339-34.448,6.68-51.131
			c-0.974,0.167-1.388,0.72-1.874,1.145c-3.741,3.266-7.068,6.917-10.017,10.906c-2.651,3.587-4.626,7.512-5.743,11.851
			c-2.594,10.073,0.776,19.91,9.011,26.239C422.64,331.448,423.093,331.956,424.08,332.051z M452.776,391.017
			c0.289-1.148,0.081-2.033-0.079-2.912c-0.582-3.192-1.701-6.226-2.777-9.27c-4.346-12.299-9.101-24.472-11.41-37.394
			c-0.099-0.553-0.148-1.349-0.984-1.19c-0.885,0.168-0.468,0.966-0.414,1.467c0.401,3.736,0.882,7.462,1.548,11.162
			c1.624,9.031,3.705,17.944,7.062,26.512c1.179,3.009,2.493,5.963,4.313,8.655C450.753,389.109,451.495,390.176,452.776,391.017z"
			/>
		<path style="fill:#773B00;" d="M617.994,310.366c1.818,0.008,3.367,1.082,3.381,2.343c0.015,1.321-1.122,2.37-2.597,2.396
			c-1.797,0.031-3.275-1.104-3.211-2.464C615.631,311.272,616.605,310.359,617.994,310.366z"/>
	</g>
	<g>
		<path style="fill:#BA773A;" d="M720.139,278.366c-18.535,0-20.852,2.317-20.852,20.852c0-18.535-2.317-20.852-20.852-20.852
			c18.535,0,20.852-2.317,20.852-20.851C699.287,276.049,701.604,278.366,720.139,278.366z"/>
		<path style="fill:#BA773A;" d="M398.277,289.594c-10.455,0-11.762,1.307-11.762,11.762c0-10.455-1.307-11.762-11.762-11.762
			c10.455,0,11.762-1.307,11.762-11.762C386.515,288.287,387.822,289.594,398.277,289.594z"/>
		<path style="fill:#BA773A;" d="M564.555,262.861c-10.931,0-12.297,1.366-12.297,12.297c0-10.931-1.366-12.297-12.297-12.297
			c10.931,0,12.297-1.366,12.297-12.297C552.257,261.495,553.624,262.861,564.555,262.861z"/>
		<path style="fill:#BA773A;" d="M728.693,316.327c-9.505,0-10.693,1.188-10.693,10.693c0-9.505-1.188-10.693-10.693-10.693
			c9.505,0,10.693-1.188,10.693-10.693C718,315.139,719.188,316.327,728.693,316.327z"/>
		<path style="fill:#BA773A;" d="M413.247,344.129c-13.307,0-14.97,1.663-14.97,14.97c0-13.307-1.663-14.97-14.97-14.97
			c13.307,0,14.97-1.663,14.97-14.97C398.277,342.465,399.941,344.129,413.247,344.129z"/>
		<path style="fill:#BA773A;" d="M535.148,151.654c-9.505,0-10.693,1.188-10.693,10.693c0-9.505-1.188-10.693-10.693-10.693
			c9.505,0,10.693-1.188,10.693-10.693C524.455,150.465,525.644,151.654,535.148,151.654z"/>
		<path style="fill:#BA773A;" d="M603.584,164.485c-11.406,0-12.832,1.426-12.832,12.832c0-11.406-1.426-12.832-12.832-12.832
			c11.406,0,12.832-1.426,12.832-12.832C590.753,163.059,592.178,164.485,603.584,164.485z"/>
		<path style="fill:#BA773A;" d="M560.812,400.802c-13.307,0-14.97,1.663-14.97,14.97c0-13.307-1.663-14.97-14.97-14.97
			c13.307,0,14.97-1.663,14.97-14.97C545.842,399.139,547.505,400.802,560.812,400.802z"/>
		<path style="fill:#BA773A;" d="M594.495,381.555c-9.03,0-10.158,1.129-10.158,10.158c0-9.03-1.129-10.158-10.158-10.158
			c9.03,0,10.158-1.129,10.158-10.159C584.337,380.426,585.465,381.555,594.495,381.555z"/>
	</g>
	<g>
		<circle style="fill:#FFFFFF;" cx="615.346" cy="384.762" r="2.139"/>
		<circle style="fill:#FFFFFF;" cx="636.198" cy="397.059" r="3.743"/>
		<path style="fill:#FFFFFF;" d="M683.782,380.485c0,1.772-1.436,3.208-3.208,3.208c-1.772,0-3.208-1.436-3.208-3.208
			c0-1.772,1.436-3.208,3.208-3.208C682.346,377.277,683.782,378.714,683.782,380.485z"/>
		<path style="fill:#FFFFFF;" d="M715.861,359.099c0,2.953-2.394,5.346-5.346,5.346c-2.953,0-5.347-2.394-5.347-5.346
			s2.394-5.346,5.347-5.346C713.468,353.753,715.861,356.146,715.861,359.099z"/>
		<path style="fill:#FFFFFF;" d="M484.891,398.129c0,1.476-1.197,2.673-2.673,2.673c-1.476,0-2.673-1.197-2.673-2.673
			c0-1.476,1.197-2.673,2.673-2.673C483.694,395.455,484.891,396.652,484.891,398.129z"/>
		<circle style="fill:#FFFFFF;" cx="407.901" cy="373" r="2.139"/>
		<path style="fill:#FFFFFF;" d="M389.723,387.436c0,1.476-1.197,2.673-2.673,2.673c-1.476,0-2.673-1.197-2.673-2.673
			c0-1.476,1.197-2.673,2.673-2.673C388.526,384.762,389.723,385.959,389.723,387.436z"/>
		<path style="fill:#FFFFFF;" d="M389.723,317.931c0,0.886-0.718,1.604-1.604,1.604c-0.886,0-1.604-0.718-1.604-1.604
			s0.718-1.604,1.604-1.604C389.005,316.327,389.723,317.045,389.723,317.931z"/>
		<path style="fill:#FFFFFF;" d="M371.545,258.584c0,1.772-1.436,3.208-3.208,3.208s-3.208-1.436-3.208-3.208
			c0-1.772,1.436-3.208,3.208-3.208S371.545,256.813,371.545,258.584z"/>
		<path style="fill:#FFFFFF;" d="M368.337,218.485c0,2.067-1.676,3.743-3.742,3.743c-2.067,0-3.743-1.676-3.743-3.743
			c0-2.067,1.676-3.743,3.743-3.743C366.661,214.743,368.337,216.418,368.337,218.485z"/>
		<path style="fill:#FFFFFF;" d="M373.683,180.525c0,1.772-1.436,3.208-3.208,3.208c-1.772,0-3.208-1.436-3.208-3.208
			c0-1.772,1.436-3.208,3.208-3.208C372.247,177.317,373.683,178.753,373.683,180.525z"/>
		<path style="fill:#FFFFFF;" d="M371.545,153.792c0,1.181-0.957,2.139-2.139,2.139c-1.181,0-2.139-0.957-2.139-2.139
			s0.957-2.139,2.139-2.139C370.587,151.654,371.545,152.611,371.545,153.792z"/>
		<circle style="fill:#FFFFFF;" cx="489.168" cy="158.069" r="2.139"/>
		<path style="fill:#FFFFFF;" d="M560.812,135.614c0,1.772-1.436,3.208-3.208,3.208c-1.772,0-3.208-1.436-3.208-3.208
			c0-1.772,1.436-3.208,3.208-3.208C559.376,132.406,560.812,133.842,560.812,135.614z"/>
		<path style="fill:#FFFFFF;" d="M555.465,160.743c0,1.476-1.197,2.673-2.673,2.673c-1.476,0-2.673-1.197-2.673-2.673
			s1.197-2.673,2.673-2.673C554.268,158.069,555.465,159.266,555.465,160.743z"/>
		<path style="fill:#FFFFFF;" d="M599.307,139.356c0,0.886-0.718,1.604-1.604,1.604c-0.886,0-1.604-0.718-1.604-1.604
			c0-0.886,0.718-1.604,1.604-1.604C598.589,137.753,599.307,138.471,599.307,139.356z"/>
		<circle style="fill:#FFFFFF;" cx="692.337" cy="152.723" r="2.139"/>
		<path style="fill:#FFFFFF;" d="M711.584,143.634c0,0.886-0.718,1.604-1.604,1.604c-0.886,0-1.604-0.718-1.604-1.604
			c0-0.886,0.718-1.604,1.604-1.604C710.866,142.03,711.584,142.748,711.584,143.634z"/>
		<circle style="fill:#FFFFFF;" cx="715.861" cy="183.733" r="2.139"/>
		<path style="fill:#FFFFFF;" d="M729.762,251.099c0,1.772-1.436,3.208-3.208,3.208c-1.772,0-3.208-1.436-3.208-3.208
			s1.436-3.208,3.208-3.208C728.326,247.891,729.762,249.327,729.762,251.099z"/>
		<path style="fill:#FFFFFF;" d="M668.812,266.604c0,1.476-1.197,2.673-2.673,2.673c-1.476,0-2.673-1.197-2.673-2.673
			s1.197-2.673,2.673-2.673C667.615,263.931,668.812,265.128,668.812,266.604z"/>
		<circle style="fill:#FFFFFF;" cx="638.871" cy="281.04" r="2.139"/>
		<path style="fill:#FFFFFF;" d="M737.247,305.099c0,0.886-0.718,1.604-1.604,1.604c-0.886,0-1.604-0.718-1.604-1.604
			c0-0.886,0.718-1.604,1.604-1.604C736.529,303.495,737.247,304.213,737.247,305.099z"/>
		<path style="fill:#FFFFFF;" d="M526.594,261.792c0,0.59-0.479,1.069-1.069,1.069c-0.591,0-1.069-0.479-1.069-1.069
			c0-0.591,0.479-1.069,1.069-1.069C526.115,260.723,526.594,261.202,526.594,261.792z"/>
		<path style="fill:#FFFFFF;" d="M574.713,254.307c0,1.181-0.958,2.139-2.139,2.139c-1.181,0-2.139-0.957-2.139-2.139
			c0-1.181,0.957-2.139,2.139-2.139C573.755,252.168,574.713,253.126,574.713,254.307z"/>
	</g>
</g>
</svg>
